<svg width="37" height="19" xmlns="http://www.w3.org/2000/svg">
 <g>
  <title>background</title>
  <rect fill="none" id="canvas_background" height="21" width="39" y="-1" x="-1"/>
 </g>

 <g>
  <title>Layer 1</title>
  <path fill="#4682b4" transform="rotate(-45 14.999544143676756,9.999057769775392) " id="svg_1" d="m30.133,25.135c0.563,-0.561 0.873,-1.324 0.867,-2.119l-0.084,-9.587c-0.007,-0.776 -0.317,-1.519 -0.867,-2.067l-16.496,-16.496c-1.155,-1.156 -3.028,-1.156 -4.184,0l-9.503,9.503c-1.156,1.155 -1.156,3.028 0,4.183l16.495,16.497c0.548,0.548 1.291,0.86 2.067,0.865l9.588,0.085c0.792,0.007 1.557,-0.305 2.117,-0.865l0,0.001zm-11.457,-4.782c-1.847,-1.845 -1.847,-4.835 -0.003,-6.68c1.845,-1.845 4.836,-1.845 6.681,0c1.844,1.845 1.844,4.835 0,6.68c-1.845,1.844 -4.836,1.844 -6.679,0l0.001,0z"/>
 </g>
</svg>